<?xml version="1.0" encoding="utf-8"?>
<!-- Generator: Adobe Illustrator 21.1.0, SVG Export Plug-In . SVG Version: 6.00 Build 0)  -->
<svg version="1.1" id="Livello_1" xmlns="http://www.w3.org/2000/svg" xmlns:xlink="http://www.w3.org/1999/xlink" x="0px" y="0px"
	 viewBox="0 0 720 528" style="enable-background:new 0 0 720 528;" xml:space="preserve">
<style type="text/css">
	.st0{fill:#CBCACA;}
	.st1{fill:#EEF0EF;}
	.st2{fill:#E5E5E4;}
</style>
<path class="st0" d="M296.5,416.8c0,0-8.3,80.3-9.1,86.5c-0.7,5.8-2.7,9.9-6.4,11.8c-3.3,1.7-16.1,6.3-18.2,7.3
	c-2.3,1.1-0.9,2.6-0.3,2.6c5.2,0.4,75.3,2.1,99.4,1.9s86.5-0.2,90.4-0.6c3.9-0.5,8.6-0.7,7.8-3.9c-0.2-1-13.2-3.1-17.3-7.3
	c-3.6-3.7-4.3-4.6-5.5-11.6c-1.7-10.1-10-85.8-10-85.8L296.5,416.8z"/>
<g>
	<g>
		<path class="st1" d="M699.8,0H20.2C10.1,0,2,8.1,2,18.2v388.6c0,10.1,8.1,18.2,18.2,18.2h679.6c10,0,18.2-8.1,18.2-18.2V18.2
			C718,8.1,709.9,0,699.8,0z M688,390H32V30h656V390z"/>
	</g>
</g>
<path class="st2" d="M261.7,524.3l1.8,2.7h193.9l2.5-2.7L261.7,524.3z"/>
</svg>
