<?xml version="1.0" encoding="utf-8"?>
<!-- Generator: Adobe Illustrator 21.1.0, SVG Export Plug-In . SVG Version: 6.00 Build 0)  -->
<svg version="1.1" id="图层_1" xmlns="http://www.w3.org/2000/svg" xmlns:xlink="http://www.w3.org/1999/xlink" x="0px" y="0px"
	 viewBox="0 0 720 576" style="enable-background:new 0 0 720 576;" xml:space="preserve">
<style type="text/css">
	.st0{display:none;}
	.st1{display:inline;}
	.st2{fill:#292929;}
	.st3{display:inline;fill:#363636;}
	.st4{fill:#333333;}
	.st5{display:inline;fill:none;stroke:#5F5F5F;stroke-miterlimit:10;}
	.st6{fill:#FFFFFF;}
	.st7{display:inline;fill:#DADADA;}
	.st8{fill:#C1BDBD;}
	.st9{display:inline;fill:none;stroke:#B4B4B4;stroke-miterlimit:10;}
	.st10{fill:#EEF0EF;}
	.st11{fill:#DADADA;}
	.st12{fill:none;stroke:#B4B4B4;stroke-miterlimit:10;}
</style>
<g id="black" class="st0">
	<g class="st1">
		<g>
			<path class="st2" d="M691.6,6.9L28.4,7C13.8,7,2,18.8,2,33.4v509.2C2,557.2,13.8,569,28.4,569l663.2-0.1
				c14.6,0,26.4-11.8,26.4-26.4V33.3C718,18.7,706.2,6.9,691.6,6.9z M648,504H72V72h576V504z"/>
		</g>
	</g>
	<path class="st3" d="M20.1,286.9c0-8.9,7.2-16.1,16.2-16.1c8.9,0,16.2,7.2,16.2,16.1s-7.2,16.1-16.2,16.1
		C27.3,302.9,20.1,295.7,20.1,286.9z"/>
	<g class="st1">
		<path class="st4" d="M40.4,279.9c4.7,0,9,2,11.9,5.2c-0.7-8.2-7.6-14.7-16.1-14.7c-8.9,0-16.2,7.2-16.2,16.1c0,4.2,1.6,8,4.2,10.9
			c0-0.5-0.1-0.9-0.1-1.4C24.3,287.1,31.5,279.9,40.4,279.9z"/>
	</g>
	<path class="st5" d="M31,291.5v-9c0-0.6,0.5-1,1-1h9.1c0.6,0,1,0.4,1,1v9c0,0.6-0.5,1-1,1H32C31.4,292.5,31,292.1,31,291.5z"/>
</g>
<g id="white" class="st0">
	<g class="st1">
		<g>
			<path class="st6" d="M691.6,6.9L28.4,7C13.8,7,2,18.8,2,33.4v509.2C2,557.2,13.8,569,28.4,569l663.2-0.1
				c14.6,0,26.4-11.8,26.4-26.4V33.3C718,18.7,706.2,6.9,691.6,6.9z M648,504H72V72h576V504z"/>
		</g>
	</g>
	<path class="st7" d="M20.1,286.9c0-8.9,7.2-16.1,16.2-16.1c8.9,0,16.2,7.2,16.2,16.1s-7.2,16.1-16.2,16.1
		C27.3,302.9,20.1,295.7,20.1,286.9z"/>
	<g class="st1">
		<path class="st8" d="M40.4,279.9c4.7,0,9,2,11.9,5.2c-0.7-8.2-7.6-14.7-16.1-14.7c-8.9,0-16.2,7.2-16.2,16.1c0,4.2,1.6,8,4.2,10.9
			c0-0.5-0.1-0.9-0.1-1.4C24.3,287.1,31.5,279.9,40.4,279.9z"/>
	</g>
	<path class="st9" d="M31,291.5v-9c0-0.6,0.5-1,1-1h9.1c0.6,0,1,0.4,1,1v9c0,0.6-0.5,1-1,1H32C31.4,292.5,31,292.1,31,291.5z"/>
</g>
<g>
	<g>
		<path class="st10" d="M691.6,6.9L28.4,7C13.8,7,2,18.8,2,33.4v509.2C2,557.2,13.8,569,28.4,569l663.2-0.1
			c14.6,0,26.4-11.8,26.4-26.4V33.3C718,18.7,706.2,6.9,691.6,6.9z M648,504H72V72h576V504z"/>
		<g>
			<path class="st6" d="M691.6,10.9L691.6,10.9c12.3,0,22.4,10,22.4,22.4v509.2c0,12.4-10,22.4-22.4,22.4L28.4,565
				C16,565,6,555,6,542.6V33.4C6,21,16,11,28.4,11L691.6,10.9 M691.6,6.9L28.4,7C13.8,7,2,18.8,2,33.4v509.2
				C2,557.2,13.8,569,28.4,569l663.2-0.1c14.6,0,26.4-11.8,26.4-26.4V33.3C718,18.7,706.2,6.9,691.6,6.9L691.6,6.9z"/>
		</g>
	</g>
</g>
<path class="st11" d="M20.1,286.9c0-8.9,7.2-16.1,16.2-16.1c8.9,0,16.2,7.2,16.2,16.1s-7.2,16.1-16.2,16.1
	C27.3,302.9,20.1,295.7,20.1,286.9z"/>
<path class="st12" d="M31,291.5v-9c0-0.6,0.5-1,1-1h9.1c0.6,0,1,0.4,1,1v9c0,0.6-0.5,1-1,1H32C31.4,292.5,31,292.1,31,291.5z"/>
</svg>
