<?xml version="1.0" encoding="utf-8"?>
<!-- Generator: Adobe Illustrator 21.1.0, SVG Export Plug-In . SVG Version: 6.00 Build 0)  -->
<svg version="1.1" id="white" xmlns="http://www.w3.org/2000/svg" xmlns:xlink="http://www.w3.org/1999/xlink" x="0px" y="0px"
	 viewBox="0 0 720 576" style="enable-background:new 0 0 720 576;" xml:space="preserve">
<style type="text/css">
	.st0{fill:#FFFFFF;}
	.st1{fill:#DADADA;}
	.st2{fill:none;stroke:#B4B4B4;stroke-miterlimit:10;}
</style>
<g>
	<g>
		<path class="st0" d="M691.6,6.9L28.4,7C13.8,7,2,18.8,2,33.4v509.2C2,557.2,13.8,569,28.4,569l663.2-0.1
			c14.6,0,26.4-11.8,26.4-26.4V33.3C718,18.7,706.2,6.9,691.6,6.9z M648,504H72V72h576V504z"/>
	</g>
</g>
<path class="st1" d="M20.1,286.9c0-8.9,7.2-16.1,16.2-16.1c8.9,0,16.2,7.2,16.2,16.1s-7.2,16.1-16.2,16.1
	C27.3,302.9,20.1,295.7,20.1,286.9z"/>
<path class="st2" d="M31,291.5v-9c0-0.6,0.5-1,1-1h9.1c0.6,0,1,0.4,1,1v9c0,0.6-0.5,1-1,1H32C31.4,292.5,31,292.1,31,291.5z"/>
</svg>
