<?xml version="1.0" encoding="utf-8"?>
<!-- Generator: Adobe Illustrator 21.1.0, SVG Export Plug-In . SVG Version: 6.00 Build 0)  -->
<svg version="1.1" id="图层_1" xmlns="http://www.w3.org/2000/svg" xmlns:xlink="http://www.w3.org/1999/xlink" x="0px" y="0px"
	 viewBox="0 0 400 800" style="enable-background:new 0 0 400 800;" xml:space="preserve">
<style type="text/css">
	.st0{display:none;}
	.st1{display:inline;enable-background:new    ;}
	.st2{fill:#353535;}
	.st3{fill:#555555;}
	.st4{fill:#333333;}
	.st5{fill:#292929;}
	.st6{fill:#363636;}
	.st7{fill:#323232;}
	.st8{fill:none;stroke:#5E5E5E;stroke-width:2;stroke-miterlimit:10;}
	.st9{fill:#5B5B5B;}
	.st10{fill:#373737;}
	.st11{fill:#282828;}
	.st12{fill:#939292;}
	.st13{fill:#CCCCCC;}
	.st14{fill:#FFFFFF;}
	.st15{fill:#DEDEDE;}
	.st16{fill:#C8C8C8;}
	.st17{fill:none;stroke:#B3B2B2;stroke-width:2;stroke-miterlimit:10;}
	.st18{fill:#CDCCCC;}
	.st19{fill:#9F9E9E;}
	.st20{fill:#EEF0EF;}
</style>
<g id="black" class="st0">
	<g id="BLACK" class="st1">
		<path class="st2" d="M10.7,153.5v-31.3c0-1.2,0.9-2.1,2.1-2.1H17c1.2,0,2.1,0.9,2.1,2.1v31.3c0,1.2-0.9,2.1-2.1,2.1h-4.2
			C11.6,155.6,10.7,154.7,10.7,153.5z"/>
		<path class="st3" d="M12.7,155.6c-1.2,0-2.1-0.9-2.1-2.1v-31.3c0-1.2,0.9-2.1,2.1-2.1V155.6z"/>
		<path class="st2" d="M10.6,218.8v-23.3c0-1.2,0.9-2.1,2.1-2.1h4.2c1.2,0,2.1,0.9,2.1,2.1v23.3c0,1.2-0.9,2.1-2.1,2.1h-4.2
			C11.5,220.9,10.6,219.9,10.6,218.8z"/>
		<path class="st3" d="M12.5,220.9c-1.2,0-2.1-0.9-2.1-2.1v-23.3c0-1.1,0.9-2.1,2.1-2.1V220.9z"/>
		<path class="st2" d="M10.6,283v-23.3c0-1.1,0.9-2.1,2.1-2.1h4.2c1.2,0,2.1,0.9,2.1,2.1V283c0,1.2-0.9,2.1-2.1,2.1h-4.2
			C11.5,285.1,10.6,284.1,10.6,283z"/>
		<path class="st3" d="M12.5,285.1c-1.2,0-2.1-0.9-2.1-2.1v-23.3c0-1.1,0.9-2.1,2.1-2.1V285.1z"/>
		<path class="st4" d="M263.8,5.4h56.6c1.2,0,2.1,0.9,2.1,2.1v4.2c0,1.2-0.9,2.1-2.1,2.1h-56.6c-1.2,0-2.1-0.9-2.1-2.1V7.5
			C261.7,6.3,262.6,5.4,263.8,5.4z"/>
		<g>
			<g>
				<path class="st5" d="M329,7.2H71.8C41,7.2,16,32.1,16,62.8v666.3c0,30.7,25,55.6,55.9,55.6H329c30.9,0,55.9-24.9,55.9-55.6V62.8
					C384.9,32.1,359.8,7.2,329,7.2z M360,668H40V100h320L360,668L360,668z"/>
			</g>
		</g>
		<path class="st6" d="M166.9,721c0-18.4,15-33.4,33.5-33.4c18.5,0,33.5,14.9,33.5,33.4c0,18.4-15,33.3-33.5,33.3
			C181.9,754.3,166.9,739.4,166.9,721z"/>
		<g>
			<path class="st7" d="M209.1,706.6c9.8,0,18.6,4.2,24.7,10.8c-1.5-17.1-15.9-30.5-33.4-30.5c-18.5,0-33.5,14.9-33.5,33.3
				c0,8.7,3.3,16.6,8.8,22.5c-0.1-0.9-0.1-1.9-0.1-2.8C175.5,721.5,190.6,706.6,209.1,706.6z"/>
		</g>
		<path class="st8" d="M189.5,730.7v-18.8c0-1.2,0.9-2.1,2.1-2.1h18.9c1.2,0,2.1,0.9,2.1,2.1v18.8c0,1.2-0.9,2.1-2.1,2.1h-18.9
			C190.4,732.8,189.5,731.8,189.5,730.7z"/>
		<path class="st9" d="M322.5,7.5c0-1.2-0.9-2.1-2.1-2.1h-56.6c-1.2,0-2.1,0.9-2.1,2.1H322.5z"/>
		<circle class="st10" cx="201.3" cy="38.7" r="6.7"/>
		<path class="st10" d="M168.9,68c0-3.8,3.1-6.9,7-6.9h51.7c3.9,0,7,3.1,7,6.9c0,3.8-3.1,6.9-7,6.9h-51.7
			C172,74.9,168.9,71.8,168.9,68z"/>
		<path class="st11" d="M175.3,68.3c0-1,0.8-1.7,1.7-1.7h51c1,0,1.7,0.8,1.7,1.7c0,1-0.8,1.7-1.7,1.7h-51
			C176.1,70,175.3,69.3,175.3,68.3z"/>
	</g>
</g>
<g id="white" class="st0">
	<g id="BLACK_1_" class="st1">
		<path class="st12" d="M10.7,153.5v-31.3c0-1.2,0.9-2.1,2.1-2.1H17c1.2,0,2.1,0.9,2.1,2.1v31.3c0,1.2-0.9,2.1-2.1,2.1h-4.2
			C11.6,155.6,10.7,154.7,10.7,153.5z"/>
		<path class="st13" d="M12.7,155.6c-1.2,0-2.1-0.9-2.1-2.1v-31.3c0-1.2,0.9-2.1,2.1-2.1V155.6z"/>
		<path class="st12" d="M10.6,218.8v-23.3c0-1.2,0.9-2.1,2.1-2.1h4.2c1.2,0,2.1,0.9,2.1,2.1v23.3c0,1.2-0.9,2.1-2.1,2.1h-4.2
			C11.5,220.9,10.6,219.9,10.6,218.8z"/>
		<path class="st13" d="M12.5,220.9c-1.2,0-2.1-0.9-2.1-2.1v-23.3c0-1.1,0.9-2.1,2.1-2.1V220.9z"/>
		<path class="st12" d="M10.6,283v-23.3c0-1.1,0.9-2.1,2.1-2.1h4.2c1.2,0,2.1,0.9,2.1,2.1V283c0,1.2-0.9,2.1-2.1,2.1h-4.2
			C11.5,285.1,10.6,284.1,10.6,283z"/>
		<path class="st13" d="M12.5,285.1c-1.2,0-2.1-0.9-2.1-2.1v-23.3c0-1.1,0.9-2.1,2.1-2.1V285.1z"/>
		<path class="st4" d="M263.8,5.4h56.6c1.2,0,2.1,0.9,2.1,2.1v4.2c0,1.2-0.9,2.1-2.1,2.1h-56.6c-1.2,0-2.1-0.9-2.1-2.1V7.5
			C261.7,6.3,262.6,5.4,263.8,5.4z"/>
		<g>
			<g>
				<path class="st14" d="M329,7.2H71.8C41,7.2,16,32.1,16,62.8v666.3c0,30.7,25,55.6,55.9,55.6H329c30.9,0,55.9-24.9,55.9-55.6
					V62.8C384.9,32.1,359.8,7.2,329,7.2z M360,668H40V100h320L360,668L360,668z"/>
			</g>
		</g>
		<path class="st15" d="M166.9,721c0-18.4,15-33.4,33.5-33.4c18.5,0,33.5,14.9,33.5,33.4c0,18.4-15,33.3-33.5,33.3
			C181.9,754.3,166.9,739.4,166.9,721z"/>
		<g>
			<path class="st16" d="M209.1,706.6c9.8,0,18.6,4.2,24.7,10.8c-1.5-17.1-15.9-30.5-33.4-30.5c-18.5,0-33.5,14.9-33.5,33.3
				c0,8.7,3.3,16.6,8.8,22.5c-0.1-0.9-0.1-1.9-0.1-2.8C175.5,721.5,190.6,706.6,209.1,706.6z"/>
		</g>
		<path class="st17" d="M189.5,730.7v-18.8c0-1.2,0.9-2.1,2.1-2.1h18.9c1.2,0,2.1,0.9,2.1,2.1v18.8c0,1.2-0.9,2.1-2.1,2.1h-18.9
			C190.4,732.8,189.5,731.8,189.5,730.7z"/>
		<path class="st13" d="M322.5,7.5c0-1.2-0.9-2.1-2.1-2.1h-56.6c-1.2,0-2.1,0.9-2.1,2.1H322.5z"/>
		<circle class="st18" cx="201.3" cy="38.7" r="6.7"/>
		<path class="st18" d="M168.9,68c0-3.8,3.1-6.9,7-6.9h51.7c3.9,0,7,3.1,7,6.9c0,3.8-3.1,6.9-7,6.9h-51.7
			C172,74.9,168.9,71.8,168.9,68z"/>
		<path class="st19" d="M175.3,68.3c0-1,0.8-1.7,1.7-1.7h51c1,0,1.7,0.8,1.7,1.7c0,1-0.8,1.7-1.7,1.7h-51
			C176.1,70,175.3,69.3,175.3,68.3z"/>
	</g>
</g>
<path class="st12" d="M10.7,153.5v-31.3c0-1.2,0.9-2.1,2.1-2.1H17c1.2,0,2.1,0.9,2.1,2.1v31.3c0,1.2-0.9,2.1-2.1,2.1h-4.2
	C11.6,155.6,10.7,154.7,10.7,153.5z"/>
<path class="st13" d="M12.7,155.6c-1.2,0-2.1-0.9-2.1-2.1v-31.3c0-1.2,0.9-2.1,2.1-2.1V155.6z"/>
<path class="st12" d="M10.6,218.8v-23.3c0-1.2,0.9-2.1,2.1-2.1h4.2c1.2,0,2.1,0.9,2.1,2.1v23.3c0,1.2-0.9,2.1-2.1,2.1h-4.2
	C11.5,220.9,10.6,219.9,10.6,218.8z"/>
<path class="st13" d="M12.5,220.9c-1.2,0-2.1-0.9-2.1-2.1v-23.3c0-1.1,0.9-2.1,2.1-2.1V220.9z"/>
<path class="st12" d="M10.6,283v-23.3c0-1.1,0.9-2.1,2.1-2.1h4.2c1.2,0,2.1,0.9,2.1,2.1V283c0,1.2-0.9,2.1-2.1,2.1h-4.2
	C11.5,285.1,10.6,284.1,10.6,283z"/>
<path class="st13" d="M12.5,285.1c-1.2,0-2.1-0.9-2.1-2.1v-23.3c0-1.1,0.9-2.1,2.1-2.1V285.1z"/>
<path class="st4" d="M263.8,5.4h56.6c1.2,0,2.1,0.9,2.1,2.1v4.2c0,1.2-0.9,2.1-2.1,2.1h-56.6c-1.2,0-2.1-0.9-2.1-2.1V7.5
	C261.7,6.3,262.6,5.4,263.8,5.4z"/>
<g>
	<g>
		<path class="st20" d="M329,7.2H71.8C41,7.2,16,32.1,16,62.8v666.3c0,30.7,25,55.6,55.9,55.6H329c30.9,0,55.9-24.9,55.9-55.6V62.8
			C384.9,32.1,359.8,7.2,329,7.2z M360,668H40V100h320L360,668L360,668z"/>
		<g>
			<path class="st14" d="M329,11.2c28.6,0,51.9,23.1,51.9,51.6v666.3c0,28.4-23.3,51.6-51.9,51.6H71.8c-28.6,0-51.9-23.1-51.9-51.6
				V62.8c0-28.4,23.3-51.6,51.9-51.6L329,11.2 M329,7.2H71.8C41,7.2,16,32.1,16,62.8v666.3c0,30.7,25,55.6,55.9,55.6H329
				c30.9,0,55.9-24.9,55.9-55.6V62.8C384.9,32.1,359.8,7.2,329,7.2L329,7.2z"/>
		</g>
	</g>
</g>
<path class="st15" d="M166.9,721c0-18.4,15-33.4,33.5-33.4c18.5,0,33.5,14.9,33.5,33.4c0,18.4-15,33.3-33.5,33.3
	C181.9,754.3,166.9,739.4,166.9,721z"/>
<path class="st17" d="M189.5,730.7v-18.8c0-1.2,0.9-2.1,2.1-2.1h18.9c1.2,0,2.1,0.9,2.1,2.1v18.8c0,1.2-0.9,2.1-2.1,2.1h-18.9
	C190.4,732.8,189.5,731.8,189.5,730.7z"/>
<path class="st13" d="M322.5,7.5c0-1.2-0.9-2.1-2.1-2.1h-56.6c-1.2,0-2.1,0.9-2.1,2.1H322.5z"/>
<circle class="st18" cx="201.3" cy="38.7" r="6.7"/>
<path class="st18" d="M168.9,68c0-3.8,3.1-6.9,7-6.9h51.7c3.9,0,7,3.1,7,6.9c0,3.8-3.1,6.9-7,6.9h-51.7
	C172,74.9,168.9,71.8,168.9,68z"/>
<path class="st19" d="M175.3,68.3c0-1,0.8-1.7,1.7-1.7h51c1,0,1.7,0.8,1.7,1.7c0,1-0.8,1.7-1.7,1.7h-51
	C176.1,70,175.3,69.3,175.3,68.3z"/>
</svg>
